<svg width="12" height="10" viewBox="0 0 12 10" fill="none" xmlns="http://www.w3.org/2000/svg">
<path d="M5.68555 0.324219C5.84961 0.146484 6.13672 0.146484 6.30078 0.324219L8.92578 2.94922C9.10352 3.11328 9.10352 3.40039 8.92578 3.56445C8.76172 3.74219 8.47461 3.74219 8.31055 3.56445L6 1.25391L3.67578 3.56445C3.51172 3.74219 3.22461 3.74219 3.06055 3.56445C2.88281 3.40039 2.88281 3.11328 3.06055 2.94922L5.68555 0.324219Z" fill="#090909" fill-opacity="0.8"/>
<path d="M5.68555 9.43945L3.06055 6.81445C2.88281 6.65039 2.88281 6.36328 3.06055 6.19922C3.22461 6.02148 3.51172 6.02148 3.67578 6.19922L6 8.50977L8.31055 6.19922C8.47461 6.02148 8.76172 6.02148 8.92578 6.19922C9.10352 6.36328 9.10352 6.65039 8.92578 6.81445L6.30078 9.43945C6.13672 9.61719 5.84961 9.61719 5.68555 9.43945Z" fill="#090909" fill-opacity="0.8"/>
</svg>
