<svg width="100" height="38" viewBox="0 0 100 38" fill="none" xmlns="http://www.w3.org/2000/svg">
<g clip-path="url(#clip0_72136_11086)">
<path d="M88.6093 5.74042C88.6094 5.58466 88.631 5.42967 88.6735 5.27982C88.7126 5.13426 88.771 4.99459 88.8472 4.86452C88.9216 4.73362 89.0144 4.6141 89.1228 4.50963C89.3325 4.29842 89.5923 4.14384 89.878 4.06035C90.0329 4.01788 90.1931 3.99754 90.3537 3.99995C90.5105 3.99907 90.6668 4.01939 90.8181 4.06035C91.103 4.14562 91.3625 4.29995 91.5733 4.50963C91.6794 4.61523 91.7708 4.73459 91.8452 4.86452C92.0033 5.12913 92.0856 5.43216 92.0831 5.74042C92.0842 5.89724 92.0638 6.05348 92.0226 6.20479C91.9396 6.49445 91.784 6.75812 91.5706 6.97085C91.3572 7.18359 91.093 7.33835 90.803 7.42048C90.6517 7.46144 90.4954 7.48176 90.3386 7.48089C90.183 7.48198 90.028 7.46166 89.878 7.42048C89.731 7.38005 89.5901 7.32039 89.4588 7.24304C89.3307 7.16772 89.2127 7.07637 89.1077 6.9712C89.0002 6.86729 88.9075 6.74915 88.8321 6.62009C88.7566 6.48968 88.6982 6.35011 88.6584 6.20479C88.6208 6.05299 88.6042 5.89673 88.6093 5.74042ZM88.9869 5.74042C88.9862 5.93048 89.0221 6.11889 89.0926 6.2954C89.1583 6.46232 89.2557 6.61491 89.3796 6.74468C89.5009 6.87278 89.6474 6.97434 89.81 7.04294C89.9772 7.11816 90.159 7.15555 90.3424 7.15243C90.5156 7.15482 90.6876 7.12274 90.8484 7.05804C91.0035 6.99546 91.1456 6.90456 91.2675 6.78998H90.7615C90.7264 6.79339 90.691 6.78666 90.6595 6.77061C90.6281 6.75455 90.6019 6.72984 90.584 6.69937L90.3688 6.15949C90.355 6.13618 90.3355 6.11671 90.3122 6.10286C90.2875 6.0873 90.2581 6.08064 90.2291 6.08398H90.1536V6.78998H89.5268V4.67952H90.3499C90.486 4.67727 90.6218 4.6925 90.754 4.72483C90.854 4.74668 90.9489 4.7877 91.0334 4.84564C91.1031 4.89547 91.1579 4.96334 91.192 5.04196C91.228 5.12669 91.246 5.21797 91.2448 5.31002C91.2472 5.37725 91.2408 5.44451 91.2259 5.51012C91.2092 5.56831 91.1851 5.62413 91.1542 5.67623C91.1188 5.72682 91.0769 5.77252 91.0296 5.81215C90.973 5.84564 90.912 5.87105 90.8484 5.88766C90.8913 5.90914 90.9297 5.93861 90.9616 5.97449C90.9944 6.01588 91.0235 6.0601 91.0485 6.10663L91.3354 6.7107C91.5823 6.44233 91.7173 6.08988 91.713 5.72532C91.7136 5.59784 91.6971 5.47086 91.6639 5.34777C91.6345 5.2288 91.5887 5.11446 91.528 5.00798C91.4709 4.90316 91.3998 4.80662 91.3166 4.72105C91.2353 4.63456 91.1425 4.55961 91.0409 4.4983C90.9378 4.43803 90.8274 4.39109 90.7124 4.35861C90.4154 4.27205 90.0975 4.29208 89.8138 4.41524C89.6516 4.48789 89.5053 4.59181 89.3833 4.72105C89.2595 4.85224 89.162 5.00606 89.0964 5.1741C89.0277 5.35485 88.9944 5.5471 88.9982 5.74042H88.9869ZM90.1498 5.65358H90.3009C90.3585 5.66089 90.4169 5.66089 90.4745 5.65358C90.5112 5.64669 90.5452 5.62969 90.5727 5.6045C90.5959 5.58255 90.6106 5.55315 90.6143 5.52144C90.6164 5.48372 90.6164 5.4459 90.6143 5.40818C90.6165 5.37298 90.6165 5.33767 90.6143 5.30247C90.6103 5.27274 90.5971 5.24502 90.5765 5.22318C90.5544 5.19878 90.5254 5.18167 90.4934 5.1741C90.4446 5.16687 90.395 5.16687 90.3462 5.1741H90.1498V5.65358Z" fill="#552588"/>
<path d="M30.1073 21.231L30.0695 21.2084C29.8813 21.1039 29.674 21.0384 29.46 21.0157C29.2459 20.993 29.0294 21.0136 28.8235 21.0762C28.6335 21.1335 28.4567 21.2277 28.3032 21.3534C28.1496 21.4791 28.0224 21.6338 27.9286 21.8087C27.7374 22.1257 27.5134 22.4218 27.2603 22.6921C27.2231 22.7156 27.1889 22.7435 27.1584 22.7752C27.0866 22.8544 27.0073 22.93 26.9394 22.9941C26.7277 23.1776 26.4974 23.3383 26.2522 23.4736C25.7921 23.7616 25.2782 23.953 24.7418 24.0362L24.5077 24.0664H24.3189H23.8696H23.6431L23.4429 24.0399C22.8966 23.9521 22.3738 23.7543 21.9062 23.4585C21.6772 23.3314 21.4621 23.1808 21.2643 23.0092C21.185 22.9337 21.1057 22.8582 21.0302 22.7789C21.0023 22.7486 20.9705 22.7219 20.9358 22.6997C20.6899 22.4379 20.471 22.1521 20.2826 21.8464C20.1877 21.6664 20.0581 21.5071 19.9012 21.3775C19.7444 21.2479 19.5634 21.1506 19.3688 21.0913C19.1549 21.0288 18.9305 21.0103 18.7092 21.0369C18.4879 21.0635 18.2743 21.1347 18.0813 21.2461C17.723 21.4605 17.4639 21.8078 17.3607 22.2123C17.2574 22.6169 17.3183 23.0458 17.53 23.4057C17.8327 23.9505 18.199 24.4574 18.6212 24.9158C18.6418 24.9518 18.6672 24.9848 18.6967 25.014C19.1813 25.4947 19.7198 25.9178 20.3014 26.275C20.6229 26.4541 20.9559 26.6118 21.2983 26.7469C21.3964 26.7884 21.4984 26.8262 21.5966 26.8602L21.6721 26.8866C21.808 26.9357 21.9439 26.9772 22.1176 27.0263C22.2913 27.0754 22.4272 27.1056 22.6085 27.1433L22.9861 27.2113L23.2277 27.2415H23.409L23.6695 27.2641H23.9602H24.2623H24.5077L24.772 27.2415H24.9495L25.1874 27.2113C25.3195 27.1924 25.4517 27.1698 25.5989 27.1396C25.7462 27.1093 25.9123 27.0678 26.0974 27.015C26.2824 26.9621 26.3768 26.9357 26.5127 26.8866L26.5844 26.8639L26.8827 26.7507C27.2366 26.6154 27.581 26.4564 27.9135 26.275C28.2228 26.0835 28.5181 25.8703 28.7971 25.6369C29.0428 25.4402 29.2761 25.2284 29.4956 25.0027C29.5228 24.9729 29.5481 24.9414 29.5711 24.9083C29.9908 24.4487 30.3558 23.9419 30.6586 23.3981C30.8717 23.0373 30.9333 22.6069 30.83 22.2009C30.7267 21.7948 30.4669 21.4461 30.1073 21.231Z" fill="#552588"/>
<path d="M24.0692 4.68713C21.0713 4.68713 18.1407 5.57587 15.6479 7.24099C13.1551 8.90611 11.212 11.2728 10.0643 14.042C8.9165 16.8112 8.61562 19.8584 9.19965 22.7985C9.78369 25.7387 11.2264 28.4396 13.3454 30.56C15.4645 32.6804 18.1647 34.125 21.1047 34.7111C24.0447 35.2973 27.0925 34.9987 29.8628 33.8532C32.6331 32.7076 35.0016 30.7665 36.6687 28.2752C38.3359 25.7839 39.2269 22.8543 39.2292 19.8568C39.2282 15.8358 37.631 11.9796 34.7885 9.13533C31.946 6.29101 28.0906 4.69114 24.0692 4.68713ZM24.0692 31.3832C21.7856 31.3831 19.5533 30.7059 17.6548 29.437C15.7563 28.1681 14.2768 26.3647 13.4036 24.2549C12.5304 22.1451 12.3027 19.8237 12.7493 17.5845C13.1959 15.3453 14.2968 13.2888 15.9126 11.6753C17.5284 10.0618 19.5865 8.96376 21.8266 8.52014C24.0666 8.07652 26.388 8.30723 28.4969 9.1831C30.6057 10.059 32.4074 11.5406 33.6739 13.4406C34.9405 15.3405 35.6149 17.5735 35.6119 19.8568C35.6049 22.9142 34.3861 25.8442 32.2225 28.0048C30.0589 30.1653 27.127 31.3802 24.0692 31.3832Z" fill="#552588"/>
<path d="M44.6397 5.52906C44.1611 5.52906 43.702 5.71919 43.3635 6.05763C43.0251 6.39607 42.8349 6.85509 42.8349 7.33371V32.3497C42.8237 32.5939 42.8622 32.8378 42.9479 33.0667C43.0337 33.2956 43.165 33.5047 43.3339 33.6815C43.5027 33.8582 43.7057 33.9989 43.9305 34.095C44.1552 34.1911 44.3972 34.2407 44.6416 34.2407C44.8861 34.2407 45.128 34.1911 45.3528 34.095C45.5776 33.9989 45.7805 33.8582 45.9494 33.6815C46.1183 33.5047 46.2496 33.2956 46.3353 33.0667C46.4211 32.8378 46.4595 32.5939 46.4484 32.3497V7.33371C46.4484 7.0964 46.4016 6.86142 46.3106 6.64223C46.2197 6.42303 46.0864 6.22392 45.9184 6.05629C45.7504 5.88866 45.551 5.75581 45.3316 5.66534C45.1122 5.57487 44.8771 5.52856 44.6397 5.52906Z" fill="#552588"/>
<path d="M62.7871 6.20485C62.4309 5.88427 61.9621 5.71812 61.4835 5.7429C61.0049 5.76768 60.5558 5.98135 60.2346 6.33699L48.8089 19.0149C48.505 19.3521 48.339 19.7912 48.3439 20.2451C48.3488 20.6991 48.5242 21.1346 48.8354 21.4651L60.0987 33.4257C60.4277 33.7761 60.8824 33.9815 61.3628 33.9968C61.8433 34.012 62.3101 33.8358 62.6606 33.5068C63.0111 33.1779 63.2165 32.7232 63.2318 32.2428C63.247 31.7624 63.0707 31.2957 62.7418 30.9452L52.6074 20.2003L62.9079 8.75704C63.0678 8.58165 63.1916 8.37645 63.2721 8.15317C63.3525 7.9299 63.3882 7.69295 63.377 7.45588C63.3658 7.21881 63.3079 6.98629 63.2067 6.77162C63.1054 6.55695 62.9629 6.36435 62.7871 6.20485Z" fill="#552588"/>
<path d="M86.2348 5.9293C86.0221 5.82392 85.7907 5.76153 85.5539 5.74568C85.3171 5.72983 85.0795 5.76085 84.8546 5.83694C84.6298 5.91304 84.4222 6.03273 84.2437 6.18916C84.0652 6.34559 83.9194 6.53569 83.8144 6.74856L76.848 20.8422L69.9118 6.74856C69.8215 6.51377 69.6833 6.30039 69.5058 6.12206C69.3284 5.94373 69.1157 5.80438 68.8813 5.71291C68.647 5.62144 68.3961 5.57986 68.1448 5.59083C67.8934 5.60181 67.6471 5.66509 67.4217 5.77663C67.1962 5.88818 66.9964 6.04554 66.8352 6.23865C66.674 6.43176 66.5548 6.65638 66.4854 6.89815C66.4159 7.13992 66.3976 7.39353 66.4317 7.64275C66.4659 7.89198 66.5516 8.13135 66.6835 8.34557L75.0696 25.3878V32.1836C75.0696 32.6632 75.2602 33.1232 75.5993 33.4623C75.9385 33.8015 76.3986 33.992 76.8782 33.992C77.3579 33.992 77.8179 33.8015 78.1571 33.4623C78.4963 33.1232 78.6869 32.6632 78.6869 32.1836V25.3085L87.073 8.34934C87.1777 8.13556 87.2391 7.90317 87.2536 7.66556C87.2682 7.42795 87.2355 7.18982 87.1576 6.96488C87.0797 6.73993 86.9581 6.53262 86.7997 6.35489C86.6413 6.17716 86.4493 6.03252 86.2348 5.9293Z" fill="#552588"/>
</g>
<defs>
<clipPath id="clip0_72136_11086">
<rect width="83.1854" height="31" fill="white" transform="translate(8.91309 4)"/>
</clipPath>
</defs>
</svg>
