<svg width="54" height="20" viewBox="0 0 54 20" fill="none" xmlns="http://www.w3.org/2000/svg">
<g clip-path="url(#clip0_7390_140634)">
<path d="M51.735 1.12301C51.735 1.02252 51.7491 0.922526 51.7766 0.825845C51.802 0.731941 51.8399 0.641832 51.8894 0.557912C51.9377 0.473463 51.9979 0.396354 52.0683 0.32895C52.2044 0.192686 52.3731 0.092958 52.5585 0.0390953C52.6591 0.0116922 52.7631 -0.00142858 52.8674 0.000123135C52.9692 -0.000441757 53.0706 0.0126676 53.1688 0.0390953C53.3538 0.0941043 53.5222 0.193674 53.6591 0.32895C53.7279 0.397079 53.7873 0.474087 53.8355 0.557912C53.9382 0.728631 53.9916 0.924131 53.99 1.12301C53.9907 1.22418 53.9775 1.32498 53.9507 1.42261C53.8968 1.60948 53.7958 1.77959 53.6573 1.91684C53.5187 2.05408 53.3473 2.15393 53.159 2.20692C53.0608 2.23335 52.9594 2.24646 52.8575 2.24589C52.7565 2.2466 52.6559 2.23349 52.5585 2.20692C52.4631 2.18084 52.3717 2.14234 52.2864 2.09244C52.2033 2.04385 52.1267 1.98491 52.0585 1.91706C51.9887 1.85002 51.9285 1.7738 51.8796 1.69054C51.8306 1.60641 51.7927 1.51635 51.7668 1.42261C51.7424 1.32467 51.7317 1.22385 51.735 1.12301V1.12301ZM51.9801 1.12301C51.9796 1.24563 52.0029 1.36718 52.0487 1.48106C52.0913 1.58875 52.1546 1.68719 52.235 1.77092C52.3137 1.85357 52.4089 1.91909 52.5144 1.96334C52.623 2.01188 52.741 2.036 52.86 2.03398C52.9725 2.03553 53.0841 2.01483 53.1884 1.97309C53.2892 1.93272 53.3814 1.87407 53.4605 1.80015H53.1321C53.1093 1.80234 53.0863 1.79801 53.0659 1.78765C53.0455 1.77729 53.0285 1.76134 53.0169 1.74169L52.8772 1.39338C52.8682 1.37834 52.8555 1.36578 52.8404 1.35684C52.8243 1.3468 52.8053 1.3425 52.7865 1.34466H52.7374V1.80015H52.3306V0.438559H52.8649C52.9532 0.437107 53.0414 0.446931 53.1272 0.467789C53.1921 0.481885 53.2537 0.508354 53.3086 0.545733C53.3538 0.577883 53.3894 0.621668 53.4115 0.672392C53.4349 0.727054 53.4466 0.785945 53.4458 0.845331C53.4473 0.888707 53.4432 0.932098 53.4336 0.974426C53.4227 1.01197 53.407 1.04798 53.387 1.0816C53.364 1.11423 53.3368 1.14372 53.3061 1.16929C53.2694 1.19089 53.2298 1.20729 53.1884 1.218C53.2163 1.23186 53.2413 1.25087 53.262 1.27402C53.2833 1.30072 53.3021 1.32925 53.3184 1.35928L53.5046 1.749C53.6649 1.57586 53.7525 1.34847 53.7497 1.11326C53.7501 1.03102 53.7394 0.949102 53.7179 0.869688C53.6988 0.792931 53.6691 0.719163 53.6296 0.65047C53.5926 0.582839 53.5464 0.520557 53.4924 0.465353C53.4396 0.409551 53.3794 0.361197 53.3135 0.321643C53.2465 0.282759 53.1748 0.252476 53.1002 0.23152C52.9074 0.175671 52.7011 0.188596 52.5168 0.268056C52.4116 0.314928 52.3166 0.381973 52.2374 0.465353C52.157 0.549989 52.0938 0.649228 52.0511 0.757644C52.0066 0.874254 51.9849 0.998288 51.9874 1.12301H51.9801ZM52.735 1.06698H52.833C52.8705 1.0717 52.9084 1.0717 52.9458 1.06698C52.9696 1.06254 52.9917 1.05157 53.0095 1.03532C53.0246 1.02116 53.0341 1.00219 53.0365 0.981733C53.0379 0.957395 53.0379 0.932999 53.0365 0.908661C53.038 0.885951 53.038 0.863169 53.0365 0.840459C53.0339 0.821282 53.0253 0.803394 53.012 0.789308C52.9976 0.773567 52.9788 0.762524 52.958 0.757644C52.9264 0.752976 52.8941 0.752976 52.8625 0.757644H52.735V1.06698Z" fill="#552588"/>
<path d="M13.7581 11.1174L13.7336 11.1028C13.6114 11.0354 13.4768 10.9931 13.3378 10.9784C13.1989 10.9638 13.0584 10.9771 12.9247 11.0175C12.8014 11.0545 12.6866 11.1152 12.5869 11.1963C12.4872 11.2774 12.4046 11.3772 12.3438 11.49C12.2197 11.6946 12.0742 11.8856 11.9099 12.06C11.8858 12.0751 11.8636 12.0931 11.8438 12.1136C11.7972 12.1647 11.7457 12.2135 11.7016 12.2549C11.5642 12.3732 11.4147 12.4769 11.2555 12.5642C10.9568 12.75 10.6233 12.8735 10.2751 12.9271L10.1231 12.9466H10.0005H9.70886H9.56179L9.43188 12.9296C9.07724 12.8729 8.73786 12.7453 8.43429 12.5545C8.28566 12.4725 8.14601 12.3753 8.0176 12.2646C7.96613 12.2159 7.91466 12.1672 7.86564 12.116C7.84751 12.0964 7.82691 12.0792 7.80436 12.0649C7.64473 11.896 7.50266 11.7116 7.38032 11.5144C7.31872 11.3983 7.23459 11.2955 7.13278 11.2119C7.03097 11.1282 6.9135 11.0655 6.78716 11.0272C6.64827 10.9869 6.50261 10.975 6.35896 10.9922C6.21531 11.0093 6.07664 11.0552 5.95133 11.1271C5.71874 11.2654 5.5506 11.4895 5.48357 11.7505C5.41653 12.0115 5.45604 12.2882 5.59347 12.5204C5.78995 12.8719 6.02774 13.1989 6.30184 13.4947C6.31521 13.5179 6.3317 13.5392 6.35086 13.558C6.66541 13.8681 7.01497 14.1411 7.39258 14.3715C7.60128 14.4871 7.81744 14.5888 8.03966 14.676C8.10339 14.7028 8.16957 14.7272 8.2333 14.7491L8.28232 14.7661C8.37056 14.7978 8.4588 14.8246 8.57155 14.8563C8.6843 14.8879 8.77254 14.9074 8.89019 14.9318L9.1353 14.9756L9.29217 14.9951H9.40982L9.57895 15.0097H9.76768H9.96377H10.1231L10.2947 14.9951H10.4099L10.5643 14.9756C10.6501 14.9634 10.7359 14.9488 10.8315 14.9293C10.9271 14.9098 11.0349 14.883 11.155 14.8489C11.2751 14.8148 11.3364 14.7978 11.4246 14.7661L11.4712 14.7515L11.6648 14.6784C11.8945 14.5911 12.1181 14.4886 12.334 14.3715C12.5347 14.248 12.7264 14.1105 12.9075 13.9599C13.0671 13.833 13.2185 13.6963 13.361 13.5507C13.3787 13.5315 13.395 13.5111 13.41 13.4898C13.6825 13.1933 13.9193 12.8663 14.1159 12.5155C14.2542 12.2827 14.2943 12.005 14.2272 11.7431C14.1602 11.4811 13.9915 11.2562 13.7581 11.1174Z" fill="#552588"/>
<path d="M9.83869 0.441406C7.89261 0.441407 5.99022 1.01478 4.37202 2.08905C2.75381 3.16332 1.49245 4.69025 0.747378 6.47681C0.00230988 8.26336 -0.193006 10.2293 0.18612 12.1262C0.565247 14.023 1.50179 15.7656 2.87737 17.1336C4.25294 18.5016 6.00577 19.4336 7.91428 19.8117C9.82279 20.1899 11.8013 19.9973 13.5996 19.2582C15.398 18.5191 16.9355 17.2668 18.0177 15.6595C19.1 14.0522 19.6784 12.1622 19.6798 10.2283C19.6792 7.6341 18.6424 5.14625 16.7972 3.31121C14.9519 1.47616 12.4492 0.443988 9.83869 0.441406V0.441406ZM9.83869 17.6646C8.3563 17.6646 6.90722 17.2277 5.6748 16.4091C4.44237 15.5904 3.48198 14.4269 2.91514 13.0658C2.34831 11.7046 2.20049 10.207 2.49041 8.76228C2.78032 7.31762 3.49493 5.99086 4.54383 4.9499C5.59272 3.90893 6.92876 3.20052 8.3829 2.91431C9.83705 2.62811 11.3439 2.77695 12.7129 3.34203C14.0819 3.9071 15.2515 4.863 16.0737 6.08879C16.8958 7.31458 17.3336 8.75516 17.3317 10.2283C17.3271 12.2008 16.5359 14.0911 15.1314 15.485C13.7269 16.8789 11.8237 17.6627 9.83869 17.6646V17.6646Z" fill="#552588"/>
<path d="M23.1924 0.988284C22.8816 0.988284 22.5836 1.11095 22.3639 1.3293C22.1442 1.54764 22.0208 1.84379 22.0208 2.15258V18.2919C22.0135 18.4494 22.0385 18.6068 22.0941 18.7545C22.1498 18.9022 22.235 19.0371 22.3447 19.1511C22.4543 19.2652 22.586 19.3559 22.7319 19.4179C22.8779 19.48 23.0349 19.5119 23.1936 19.5119C23.3523 19.5119 23.5094 19.48 23.6553 19.4179C23.8012 19.3559 23.9329 19.2652 24.0426 19.1511C24.1522 19.0371 24.2374 18.9022 24.2931 18.7545C24.3487 18.6068 24.3737 18.4494 24.3665 18.2919V2.15258C24.3665 1.99947 24.3361 1.84787 24.277 1.70646C24.218 1.56504 24.1315 1.43658 24.0224 1.32843C23.9134 1.22029 23.7839 1.13458 23.6415 1.07621C23.4991 1.01784 23.3464 0.987964 23.1924 0.988284V0.988284Z" fill="#552588"/>
<path d="M34.9721 1.42069C34.7409 1.21386 34.4366 1.10667 34.1259 1.12266C33.8152 1.13864 33.5236 1.27649 33.3152 1.50594L25.8982 9.68521C25.7009 9.90276 25.5931 10.1861 25.5963 10.4789C25.5994 10.7718 25.7133 11.0528 25.9153 11.266L33.2269 18.9825C33.4405 19.2086 33.7357 19.3411 34.0476 19.351C34.3594 19.3608 34.6625 19.2471 34.89 19.0349C35.1175 18.8227 35.2509 18.5293 35.2608 18.2194C35.2707 17.9094 35.1562 17.6083 34.9427 17.3822L28.364 10.45L35.0505 3.06726C35.1544 2.95411 35.2347 2.82172 35.2869 2.67767C35.3392 2.53363 35.3623 2.38075 35.355 2.22781C35.3478 2.07486 35.3102 1.92484 35.2445 1.78635C35.1788 1.64785 35.0862 1.52359 34.9721 1.42069V1.42069Z" fill="#552588"/>
<path d="M50.1936 1.24291C50.0556 1.17493 49.9054 1.13467 49.7517 1.12445C49.5979 1.11422 49.4437 1.13423 49.2977 1.18333C49.1518 1.23243 49.017 1.30965 48.9012 1.41057C48.7853 1.51149 48.6906 1.63413 48.6225 1.77147L44.1002 10.8642L39.5976 1.77147C39.539 1.61999 39.4492 1.48233 39.334 1.36728C39.2188 1.25223 39.0808 1.16232 38.9286 1.10331C38.7765 1.04429 38.6137 1.01747 38.4505 1.02455C38.2873 1.03163 38.1275 1.07245 37.9811 1.14442C37.8347 1.21639 37.705 1.31791 37.6004 1.4425C37.4957 1.56708 37.4184 1.712 37.3733 1.86798C37.3282 2.02396 37.3163 2.18758 37.3385 2.34837C37.3606 2.50916 37.4163 2.66359 37.5019 2.8018L42.9458 13.7968V18.1812C42.9458 18.4906 43.0695 18.7874 43.2896 19.0062C43.5098 19.225 43.8085 19.3479 44.1198 19.3479C44.4312 19.3479 44.7299 19.225 44.95 19.0062C45.1702 18.7874 45.2939 18.4906 45.2939 18.1812V13.7457L50.7378 2.80423C50.8058 2.66631 50.8456 2.51638 50.8551 2.36308C50.8645 2.20979 50.8433 2.05615 50.7927 1.91103C50.7421 1.7659 50.6632 1.63215 50.5604 1.51749C50.4575 1.40282 50.3329 1.30951 50.1936 1.24291V1.24291Z" fill="#552588"/>
</g>
<defs>
<clipPath id="clip0_7390_140634">
<rect width="54" height="20" fill="white"/>
</clipPath>
</defs>
</svg>
